<svg xmlns="http://www.w3.org/2000/svg" viewBox="0 0 18.96 17.58"><defs><style>.cls-1{fill:#fff;}</style></defs><g id="Layer_2" data-name="Layer 2"><g id="Layer_1-2" data-name="Layer 1"><path class="cls-1" d="M11.56,14.29c0,.5.06,1,.13,1.43a1.23,1.23,0,0,0,.63.89c.27.17.54.31.8.49a1.14,1.14,0,0,1,.23.33,1.06,1.06,0,0,1-.34.12q-3.45,0-6.91,0a1.08,1.08,0,0,1-.35-.13c.08-.1.13-.24.23-.31a6.59,6.59,0,0,1,.72-.44,1.43,1.43,0,0,0,.76-1.15c0-.41,0-.81.08-1.25H7.18L2,14.32H1.48c-1,0-1.42-.43-1.43-1.43S0,11,0,10L0,1.69V1.57C0,.5.43.08,1.51.06H5.7L17.17,0h.22c1.08,0,1.53.44,1.53,1.52,0,2.66,0,5.31,0,8,0,1,0,2.1,0,3.15a4.58,4.58,0,0,1,0,.53,1.09,1.09,0,0,1-1.1,1.07c-.74,0-1.48,0-2.22,0l-3.69,0Zm-2.13-3v-.06h8.1a.38.38,0,0,0,.4-.39c0-.4.05-.81,0-1.21,0-.81,0-1.61,0-2.41,0-1.88,0-3.75,0-5.63,0-.55,0-.58-.59-.57L1.57,1.1c-.5,0-.54,0-.54.53,0,2,0,3.94,0,5.91,0,1.06,0,2.12,0,3.19,0,.54,0,.58.59.58Zm.88,1.51A.81.81,0,0,0,9.5,12a.83.83,0,0,0-.82.84.85.85,0,0,0,.84.84A.82.82,0,0,0,10.31,12.82Z"/></g></g></svg>